HIERARCHY
ROOT joint_Root
{
	OFFSET 0.0 0.0 0.0
	CHANNELS 6 Xposition Yposition Zposition Zrotation Xrotation Yrotation 
	JOINT Hips
	{
		OFFSET -17.1583 93.1646 452.98
		CHANNELS 6 Xposition Yposition Zposition Zrotation Xrotation Yrotation 
		JOINT Spine
		{
			OFFSET 15.7357 0.0 0.0
			CHANNELS 6 Xposition Yposition Zposition Zrotation Xrotation Yrotation 
			JOINT Chest
			{
				OFFSET 8.98455 -0.406207 0.0
				CHANNELS 6 Xposition Yposition Zposition Zrotation Xrotation Yrotation 
				JOINT Neck
				{
					OFFSET 16.3773 0.0 0.0
					CHANNELS 6 Xposition Yposition Zposition Zrotation Xrotation Yrotation 
					JOINT Head
					{
						OFFSET 6.45672 0.0 0.0
						CHANNELS 6 Xposition Yposition Zposition Zrotation Xrotation Yrotation 
						End Site
						{
							OFFSET 0.0 0.0 0.0
						}
					}
				}
				JOINT Shoulder_L
				{
					OFFSET 12.9942 -0.242716 4.98039
					CHANNELS 6 Xposition Yposition Zposition Zrotation Xrotation Yrotation 
					JOINT UpperArm_L
					{
						OFFSET 5.34809 0.0 0.0
						CHANNELS 6 Xposition Yposition Zposition Zrotation Xrotation Yrotation 
						JOINT LowerArm_L
						{
							OFFSET 24.3286 1.87007e-05 0.0
							CHANNELS 6 Xposition Yposition Zposition Zrotation Xrotation Yrotation 
							JOINT Hand_L
							{
								OFFSET 22.2916 0.0 0.0
								CHANNELS 6 Xposition Yposition Zposition Zrotation Xrotation Yrotation 
								End Site
								{
									OFFSET 0.0 0.0 0.0
								}
							}
						}
					}
				}
				JOINT Shoulder_R
				{
					OFFSET 12.9945 -0.242716 -4.98039
					CHANNELS 6 Xposition Yposition Zposition Zrotation Xrotation Yrotation 
					JOINT UpperArm_R
					{
						OFFSET -5.34813 0.0 0.0
						CHANNELS 6 Xposition Yposition Zposition Zrotation Xrotation Yrotation 
						JOINT LowerArm_R
						{
							OFFSET -24.3289 0.000322201 0.0
							CHANNELS 6 Xposition Yposition Zposition Zrotation Xrotation Yrotation 
							JOINT Hand_R
							{
								OFFSET -22.2915 -0.000108084 0.0
								CHANNELS 6 Xposition Yposition Zposition Zrotation Xrotation Yrotation 
								End Site
								{
									OFFSET 0.0 0.0 0.0
								}
							}
						}
					}
				}
			}
		}
		JOINT UpperLeg_L
		{
			OFFSET -2.19248 -6.46944 0.0
			CHANNELS 6 Xposition Yposition Zposition Zrotation Xrotation Yrotation 
			JOINT LowerLeg_L
			{
				OFFSET 39.0811 0.0 -1.23785e-05
				CHANNELS 6 Xposition Yposition Zposition Zrotation Xrotation Yrotation 
				JOINT Foot_L
				{
					OFFSET 40.9854 0.0 -1.26872e-05
					CHANNELS 6 Xposition Yposition Zposition Zrotation Xrotation Yrotation 
					JOINT Toes_L
					{
						OFFSET 11.7543 0.0 0.0
						CHANNELS 6 Xposition Yposition Zposition Zrotation Xrotation Yrotation 
						End Site
						{
							OFFSET 0.0 0.0 0.0
						}
					}
				}
			}
		}
		JOINT UpperLeg_R
		{
			OFFSET -2.19251 6.46944 0.0
			CHANNELS 6 Xposition Yposition Zposition Zrotation Xrotation Yrotation 
			JOINT LowerLeg_R
			{
				OFFSET -39.0811 -0.00228153 -0.0401928
				CHANNELS 6 Xposition Yposition Zposition Zrotation Xrotation Yrotation 
				JOINT Foot_R
				{
					OFFSET -40.9854 0.0 0.0
					CHANNELS 6 Xposition Yposition Zposition Zrotation Xrotation Yrotation 
					JOINT Toes_R
					{
						OFFSET -11.7543 0.0 0.0
						CHANNELS 6 Xposition Yposition Zposition Zrotation Xrotation Yrotation 
						End Site
						{
							OFFSET 0.0 0.0 0.0
						}
					}
				}
			}
		}
	}
}
MOTION
Frames:	7
Frame Time:	0.0333333
0.000000 0.000000 0.000000 0.000000 0.000000 -0.000000 162.659000 88.575100 252.637000 121.522000 -72.291200 28.453700 15.735700 0.000005 -0.000001 115.582000 86.556600 -118.489000 8.984550 -0.406207 -0.000000 -1.466880 3.207170 -5.772410 16.377300 -0.000001 -0.000001 -3.776810 -3.508920 -0.947140 6.456720 -0.000001 -0.000000 0.456894 -7.184310 3.784720 12.994200 -0.242716 4.980390 -93.973600 10.537800 -69.201800 5.348090 -0.000007 -0.000001 -61.091700 -7.455270 10.601500 24.328600 0.000019 0.000005 3.815000 26.329100 -8.550810 22.291600 -0.000001 0.000005 1.050500 4.670840 13.678500 12.994500 -0.242716 -4.980390 88.275500 6.179580 -74.374500 -5.348130 -0.000001 -0.000004 -73.713100 13.530900 -8.144110 -24.328900 0.000322 -0.000009 -5.565720 -11.206500 -26.633400 -22.291500 -0.000108 -0.000004 10.763700 5.414200 -3.390320 -2.192480 -6.469440 -0.000000 175.786000 -4.250350 -18.845600 39.081100 -0.000007 -0.000012 0.434948 -0.568190 37.434800 40.985400 -0.000006 -0.000013 -0.678889 11.333800 -74.442300 11.754300 -0.000000 0.000003 -0.000415 0.174340 -9.505290 -2.192510 6.469440 -0.000001 167.941000 -5.794400 169.555000 -39.081100 -0.002282 -0.040193 0.327910 -0.164247 63.170300 -40.985400 0.000008 0.000006 2.143110 -8.946720 -28.932900 -11.754300 -0.000006 -0.000006 0.002243 0.110166 -12.105800
0.000000 0.000000 0.000000 0.000000 0.000000 -0.000000 159.554000 89.964800 254.016000 120.622000 -74.468100 28.524100 15.735700 0.000005 -0.000001 107.269000 86.757200 -109.581000 8.984550 -0.406207 -0.000000 -1.526320 2.112210 -4.593270 16.377300 -0.000001 -0.000001 -2.743480 -2.028090 -1.610470 6.456720 -0.000001 -0.000000 1.903250 -5.371250 3.234560 12.994200 -0.242716 4.980390 -93.614800 9.933620 -69.887000 5.348090 -0.000007 -0.000001 -61.669800 -4.608190 5.189700 24.328600 0.000019 0.000005 5.890170 25.372200 -13.538100 22.291600 -0.000001 0.000005 2.010480 4.761840 12.032900 12.994500 -0.242716 -4.980390 88.358400 6.059010 -74.810200 -5.348130 -0.000001 -0.000004 -73.928700 14.956700 -7.204800 -24.328900 0.000322 -0.000009 -1.293950 -7.824890 -9.321430 -22.291500 -0.000108 -0.000004 5.247220 5.184130 3.211790 -2.192480 -6.469440 -0.000000 177.307000 -3.587610 -12.194500 39.081100 -0.000007 -0.000012 0.117868 -0.197783 30.792500 40.985400 -0.000006 -0.000013 -5.367780 10.142100 -71.957700 11.754300 -0.000000 0.000003 0.000806 0.152737 -10.382500 -2.192510 6.469440 -0.000001 170.637000 -3.851700 164.382000 -39.081100 -0.002282 -0.040193 0.258018 -0.105163 67.579000 -40.985400 0.000008 0.000006 2.605680 -13.050900 -38.682600 -11.754300 -0.000006 -0.000006 0.002176 0.113543 -11.968900
0.000000 0.000000 0.000000 0.000000 0.000000 -0.000000 156.649000 91.395900 254.969000 115.033000 -75.362800 23.779900 15.735700 0.000005 -0.000001 92.440200 86.764100 -93.973500 8.984550 -0.406207 -0.000000 -1.292910 0.396662 -3.061100 16.377300 -0.000001 -0.000001 -2.275920 -1.069740 -2.289580 6.456720 -0.000001 -0.000000 3.286970 -3.739020 3.039720 12.994200 -0.242716 4.980390 -93.074900 8.823860 -70.700500 5.348090 -0.000007 -0.000001 -61.728300 -3.834080 -0.300183 24.328600 0.000019 0.000005 8.042760 23.087400 -19.819000 22.291600 -0.000001 0.000005 2.659570 4.855240 10.260500 12.994500 -0.242716 -4.980390 88.606800 5.194590 -74.963400 -5.348130 -0.000001 -0.000004 -74.042900 12.521800 -4.077110 -24.328900 0.000322 -0.000009 -0.011344 8.458110 0.000032 -22.291500 -0.000108 -0.000004 -1.619140 4.954580 8.298610 -2.192480 -6.469440 -0.000000 179.428000 -2.402770 -6.562680 39.081100 -0.000007 -0.000012 -0.062147 0.137705 24.289800 40.985400 -0.000006 -0.000013 -11.242200 9.370800 -66.386700 11.754300 -0.000000 0.000003 0.580168 0.923613 -12.539100 -2.192510 6.469440 -0.000001 174.498000 -1.461150 160.219000 -39.081100 -0.002282 -0.040193 0.191242 -0.077452 67.620300 -40.985400 0.000008 0.000006 2.297540 -13.473600 -43.157600 -11.754300 -0.000006 -0.000006 0.002169 0.113876 -11.955400
0.000000 0.000000 0.000000 0.000000 0.000000 -0.000000 153.986000 92.705900 255.700000 107.543000 -75.499900 16.389500 15.735700 0.000005 -0.000001 77.144100 86.592600 -77.987300 8.984550 -0.406207 -0.000000 -1.132150 -1.450530 -1.700170 16.377300 -0.000001 -0.000001 -2.266310 -0.482636 -2.405690 6.456720 -0.000001 -0.000000 4.031770 -2.313750 3.477980 12.994200 -0.242716 4.980390 -92.615400 7.790610 -71.377600 5.348090 -0.000007 -0.000001 -60.776800 -4.630670 -5.416110 24.328600 0.000019 0.000005 9.530190 18.810400 -27.513300 22.291600 -0.000001 0.000005 3.191630 4.908470 9.209000 12.994500 -0.242716 -4.980390 88.874400 4.113710 -74.682400 -5.348130 -0.000001 -0.000004 -73.485900 9.477440 1.072440 -24.328900 0.000322 -0.000009 -0.000612 24.033600 0.000113 -22.291500 -0.000108 -0.000004 -5.227330 4.828480 10.789100 -2.192480 -6.469440 -0.000000 -178.815000 -2.386920 -3.339990 39.081100 -0.000007 -0.000012 -0.045139 0.121468 20.385700 40.985400 -0.000006 -0.000013 -11.025100 8.937560 -62.062400 11.754300 -0.000000 0.000003 0.002253 0.058056 -14.222000 -2.192510 6.469440 -0.000001 178.561000 0.381349 156.521000 -39.081100 -0.002282 -0.040193 0.135251 -0.063972 64.157100 -40.985400 0.000008 0.000006 0.975836 -10.580800 -47.360700 -11.754300 -0.000006 -0.000006 0.002133 0.115519 -11.888700
0.000000 0.000000 0.000000 0.000000 0.000000 -0.000000 151.473000 93.693700 256.356000 100.658000 -75.235300 8.898170 15.735700 0.000005 -0.000001 64.107600 86.377100 -64.409500 8.984550 -0.406207 -0.000000 -1.256050 -3.139690 -0.638169 16.377300 -0.000001 -0.000001 -2.278090 -0.167948 -2.235050 6.456720 -0.000001 -0.000000 4.255550 -1.136710 4.245500 12.994200 -0.242716 4.980390 -92.356300 7.304020 -72.065600 5.348090 -0.000007 -0.000001 -58.571200 -6.329400 -9.758140 24.328600 0.000019 0.000005 10.580200 14.732000 -36.304000 22.291600 -0.000001 0.000005 4.234160 4.935010 8.672250 12.994500 -0.242716 -4.980390 89.049300 3.365210 -74.214100 -5.348130 -0.000001 -0.000004 -72.017900 9.194110 7.945090 -24.328900 0.000322 -0.000009 -0.000761 29.358200 0.000144 -22.291500 -0.000108 -0.000004 -6.826770 4.828200 10.782500 -2.192480 -6.469440 -0.000000 -176.950000 -4.151790 -1.152050 39.081100 -0.000007 -0.000012 -0.021896 0.071736 16.973800 40.985400 -0.000006 -0.000013 -10.531900 10.576900 -58.076800 11.754300 -0.000000 0.000003 0.000537 0.009596 -16.187800 -2.192510 6.469440 -0.000001 -177.893000 1.413010 153.652000 -39.081100 -0.002282 -0.040193 0.094216 -0.058455 57.285100 -40.985400 0.000008 0.000006 -1.229870 -7.105150 -52.195200 -11.754300 -0.000006 -0.000006 0.002189 0.112937 -11.993400
0.000000 0.000000 0.000000 0.000000 0.000000 -0.000000 148.931000 94.255100 257.112000 96.867900 -74.945100 4.530660 15.735700 0.000005 -0.000001 54.985100 86.045100 -55.016100 8.984550 -0.406207 -0.000000 -1.289710 -4.535200 -0.113033 16.377300 -0.000001 -0.000001 -2.182170 -0.073780 -2.042640 6.456720 -0.000001 -0.000000 4.236010 -0.051751 4.962610 12.994200 -0.242716 4.980390 -92.169800 7.058110 -72.863400 5.348090 -0.000007 -0.000001 -56.153100 -9.102900 -13.423600 24.328600 0.000019 0.000005 12.752700 12.820900 -45.560800 22.291600 -0.000001 0.000005 6.453900 4.941660 8.535670 12.994500 -0.242716 -4.980390 89.174700 2.752290 -73.299700 -5.348130 -0.000001 -0.000004 -69.839300 9.030990 14.521000 -24.328900 0.000322 -0.000009 1.135070 25.507500 -2.640160 -22.291500 -0.000108 -0.000004 -4.806310 4.983050 7.701310 -2.192480 -6.469440 -0.000000 -175.626000 -7.029440 0.826412 39.081100 -0.000007 -0.000012 -0.005759 0.022351 14.446700 40.985400 -0.000006 -0.000013 -10.263400 13.262200 -54.811400 11.754300 -0.000000 0.000003 -0.003736 -0.048676 -18.556700 -2.192510 6.469440 -0.000001 -175.522000 2.055320 152.405000 -39.081100 -0.002282 -0.040193 0.062932 -0.055046 47.310200 -40.985400 0.000008 0.000006 -3.035460 -5.375420 -54.854000 -11.754300 -0.000006 -0.000006 0.002102 0.116891 -11.833100
0.000000 0.000000 0.000000 0.000000 0.000000 -0.000000 146.282000 94.315300 258.044000 96.716300 -74.690400 4.114330 15.735700 0.000005 -0.000001 47.976600 85.571600 -48.070700 8.984550 -0.406207 -0.000000 -1.192250 -5.920410 -0.249780 16.377300 -0.000001 -0.000001 -2.042490 0.057375 -1.717130 6.456720 -0.000001 -0.000000 4.275860 1.134160 5.274410 12.994200 -0.242716 4.980390 -91.961600 6.614130 -73.440200 5.348090 -0.000007 -0.000001 -54.435100 -12.692800 -16.410300 24.328600 0.000019 0.000005 15.797500 11.705500 -54.353800 22.291600 -0.000001 0.000005 9.005930 4.957520 8.210910 12.994500 -0.242716 -4.980390 89.366300 1.991120 -72.341200 -5.348130 -0.000001 -0.000004 -66.591800 6.460860 19.720400 -24.328900 0.000322 -0.000009 1.665000 17.417400 -5.556600 -22.291500 -0.000108 -0.000004 -2.588640 5.164760 3.594920 -2.192480 -6.469440 -0.000000 -175.331000 -8.601560 2.834650 39.081100 -0.000007 -0.000012 0.001513 -0.006475 13.159200 40.985400 -0.000006 -0.000013 -9.591530 14.843300 -53.183600 11.754300 -0.000000 0.000003 -0.011160 -0.112122 -21.146500 -2.192510 6.469440 -0.000001 -174.429000 2.412700 152.944000 -39.081100 -0.002282 -0.040193 0.028987 -0.036326 35.275300 -40.985400 0.000008 0.000006 -2.198100 -3.872070 -55.775000 -11.754300 -0.000006 -0.000006 0.002021 0.120166 -11.700300
